# xmcd
#
# Track frame offsets:
#	150
#	13179
#	29065
#	58622
#	70847
#	83498
#	125388
#	132464
#
# Disc length: 1924 seconds
#
# Revision: 1
# Processed by: cddbd v1.5.2PL0 Copyright (c) Steve Scherf et al.
# Submitted via: audiograbber 1.83.01
#
DISCID=6b078208
DTITLE=The Bintangs - THE BINTANGS - Travelling In The U.S.A.
DYEAR=1970
DGENRE=Blues
TTITLE0=Travelling In The U.S.A.
TTITLE1=In The Past
TTITLE2=Is A Blue Bird Blue ?
TTITLE3=He Didn't Wanna Go Home
TTITLE4=Rock It Little Bastard
TTITLE5=I'm Gonna Let You Down
TTITLE6=Agnes Cry
TTITLE7=Ridin' On The L and N
EXTD=
EXTT0=
EXTT1=
EXTT2=
EXTT3=
EXTT4=
EXTT5=
EXTT6=
EXTT7=
PLAYORDER=
